<svg xmlns="http://www.w3.org/2000/svg" fill="none" viewBox="0 0 24 24" stroke-width="1.5" stroke="currentColor"><path stroke-linecap="round" stroke-linejoin="round" d="M6.75 3v2.25M17.25 3v2.25M3 18.75V7.5a2.25 2.25 0 0 1 2.25-2.25h13.5A2.25 2.25 0 0 1 21 7.5v11.25m-18 0A2.25 2.25 0 0 0 5.25 21h13.5A2.25 2.25 0 0 0 21 18.75M9.75 9h.008v.008H9.75V9zm0 2.25h.008v.008H9.75V11.25zm0 2.25h.008v.008H9.75V13.5zm0 2.25h.008v.008H9.75V15.75zm4.5-4.5h.008v.008h-.008V11.25zm0 2.25h.008v.008h-.008V13.5zm0 2.25h.008v.008h-.008V15.75zm4.5-4.5h.008v.008h-.008V11.25zm0 2.25h.008v.008h-.008V13.5" /></svg>