<svg xmlns="http://www.w3.org/2000/svg" fill="none" viewBox="0 0 24 24" stroke-width="1.5" stroke="currentColor"><path stroke-linecap="round" stroke-linejoin="round" d="M9.594 3.94c.09-.542.56-.94 1.11-.94h2.592c.55 0 1.02.398 1.11.94a6.059 6.059 0 0 0 1.362 2.716c.44.577 1.011 1.077 1.681 1.342.67.264 1.389.213 2.05-.582.417-.713 1.281.273 1.011.75a2.122 2.122 0 0 1-1.331 1.382c-.5.246-.982.605-1.349 1.048.949.694 1.955 1.35 3.01 1.952 1.288.946 2.577 1.892 3.866 2.839.417.312.849.612 1.291.903.44.286.879.582 1.318.883 1.126.826 2.253 1.65 3.38 2.476.417.312.863.621 1.305.932a.25.25 0 0 1-.05.393 2.122 2.122 0 0 1-1.332-.393l-8.881-6.58a1.012 1.012 0 0 0-.639 0c-.639.256-1.256.654-1.753 1.17M12 21a9 9 0 1 1 0-18 9 9 0 0 1 0 18z" /></svg>