<svg xmlns="http://www.w3.org/2000/svg" fill="none" viewBox="0 0 24 24" stroke-width="1.5" stroke="currentColor"><path stroke-linecap="round" stroke-linejoin="round" d="M12 9v3.75m-9.303 3.376c.055.121.112.244.175.368C3.478 20.564 7.462 24 12 24s8.522-3.436 9.128-7.756a13.697 13.697 0 0 0 .175-.368m0 0a8.967 8.967 0 0 0-7.418-4.296c-4.614 0-8.588 2.33-10.992 5.82m20.44-15.138c.56.784 1.074 1.611 1.539 2.461a8.969 8.969 0 0 0-1.7-2.282m0 0A8.969 8.969 0 0 0 12 3c-4.395 0-8.16 2.814-9.461 6.69m0 0a8.965 8.965 0 0 0-.663 1.41" /></svg>